<svg width="70" height="70" viewBox="0 0 70 70" fill="none" xmlns="http://www.w3.org/2000/svg">
<path d="M22.9256 29.8919H10.8263C10.8263 26.5525 13.0866 23.4154 16.8981 23.4154C20.2664 23.4154 22.9256 26.1983 22.9256 29.8919Z" fill="#0742C6"/>
<path d="M42.9138 24.3767C46.0162 30.0943 46.0162 39.1008 42.9138 44.8183C45.4843 44.5653 47.789 43.604 49.5617 41.1247C52.0436 37.5322 52.088 32.9278 50.3595 29.2341C48.9413 25.9453 45.8389 24.6297 42.9138 24.3767ZM42.7808 13.8523C52.1323 13.8523 58.1154 19.7723 60.3314 25.9453C63.2122 32.27 62.1485 41.3271 58.7802 47.247C55.9881 52.2563 51.3345 55.2415 42.5592 55.2415C34.2714 55.2415 23.945 55.2415 19.0255 55.2415C26.6041 54.5838 31.4793 49.524 34.4044 42.4402H23.1915C22.4381 44.0594 20.3107 45.1725 17.9175 45.1725C14.0174 45.1725 11.7127 41.0235 11.7127 37.7346H35.1135C36.0886 33.788 35.3794 29.3859 33.9612 25.9453C31.302 18.9121 24.2995 14.0547 18.5823 13.8523H42.7808Z" fill="#0742C6"/>
</svg>
