<?xml version="1.0" standalone="no"?>
<!DOCTYPE svg PUBLIC "-//W3C//DTD SVG 20010904//EN"
 "http://www.w3.org/TR/2001/REC-SVG-20010904/DTD/svg10.dtd">
<svg version="1.0" xmlns="http://www.w3.org/2000/svg"
 width="700.000000pt" height="700.000000pt" viewBox="0 0 700.000000 700.000000"
 preserveAspectRatio="xMidYMid meet">
<metadata>
Created by potrace 1.14, written by Peter Selinger 2001-2017
</metadata>
<g transform="translate(0.000000,700.000000) scale(0.100000,-0.100000)"
fill="#000000" stroke="none">
<path d="M1956 5611 c2 -2 34 -10 71 -17 105 -19 116 -22 210 -55 474 -163
904 -562 1116 -1034 108 -239 168 -459 194 -710 16 -152 4 -381 -30 -548 -1
-6 -7 -14 -14 -17 -7 -3 -535 -5 -1173 -4 l-1161 0 5 -55 c16 -158 64 -293
149 -421 33 -50 162 -180 178 -180 5 0 22 -9 37 -19 56 -41 150 -64 262 -64
209 0 403 87 489 220 l31 48 554 0 c305 0 557 -2 560 -5 8 -8 -133 -293 -197
-398 -105 -172 -180 -266 -327 -412 -228 -226 -499 -371 -809 -434 -62 -13
-107 -25 -100 -27 23 -8 2417 -3 2504 5 76 7 94 9 190 22 69 10 99 15 145 25
25 6 56 13 70 15 50 9 237 73 304 104 340 158 582 417 757 813 96 215 173 492
205 737 35 264 25 598 -26 845 -40 193 -171 520 -283 705 -85 142 -271 352
-413 468 -218 177 -562 330 -829 368 -27 3 -59 8 -70 11 -11 2 -47 6 -80 9
-67 7 -2526 11 -2519 5z m2524 -1082 c254 -63 445 -215 549 -440 184 -399 165
-827 -52 -1165 -130 -204 -323 -336 -562 -385 -122 -25 -129 -25 -111 4 8 12
35 72 59 132 38 92 51 131 72 205 1 3 7 25 14 49 43 151 74 407 74 611 0 84
-11 281 -18 314 -2 11 -7 41 -10 66 -18 156 -96 422 -161 554 -19 39 -34 74
-34 79 0 11 74 1 180 -24z"/>
<path d="M1545 4641 c-100 -25 -180 -67 -252 -134 -125 -117 -193 -262 -207
-444 l-4 -53 605 0 606 0 -6 73 c-15 208 -141 407 -319 506 -114 63 -289 85
-423 52z"/>
</g>
</svg>
